M48
;Layer_Color=9474304
;FILE_FORMAT=2:5
INCH,LZ
;TYPE=PLATED
T1F00S00C0.00600
T2F00S00C0.01181
T3F00S00C0.04016
T4F00S00C0.05906
%
T01
X0020579Y-0216724
X005876Y-0211713
X0076953Y-0211488
X0066142Y-018563
X006565Y-0175
X0056705Y-0164606
X0046555Y-0168277
X0033465Y-0165748
X0024803Y-0152657
X0038189Y-0143799
X0047244Y-0147835
X0061417Y-0143799
X0059106Y-0140504
X0064941Y-0146161
X0075Y-0137795
X0079429Y-0119095
X008874Y-0104012
X0093898Y-0091535
X0072146Y-0084153
X0060433Y-0075984
X0055216Y-0094193
X005502Y-0101378
X0028543Y-0097933
X0017717Y-0102756
X0011516Y-0093012
X0020669Y-0072736
X0048917Y-0183169
X0044291Y-0063779
X003061Y-0066732
X0024606Y-0063189
X0032185Y-0051378
X0060335Y-006811
X0088705Y-0064535
T02
X0046358Y-0181595
X0044193Y-0171949
T03
X0008744Y-0211606
Y-0201606
Y-0191606
Y-0181606
Y-0171606
Y-0161606
Y-0151606
Y-0141606
X0090453Y-0141811
Y-0151811
Y-0161811
Y-0171811
Y-0181811
Y-0191811
Y-0201811
Y-0211811
T04
X0023012Y-001998
X0043012
X0064941Y-0019882
X0084941
M30
