G04*
G04 #@! TF.GenerationSoftware,Altium Limited,Altium Designer,18.1.5 (160)*
G04*
G04 Layer_Color=65535*
%FSLAX25Y25*%
%MOIN*%
G70*
G01*
G75*
%ADD10C,0.00787*%
%ADD11C,0.00591*%
%ADD12C,0.00197*%
%ADD13C,0.00394*%
%ADD14C,0.00500*%
%ADD15C,0.01079*%
%ADD16C,0.00300*%
D10*
X76326Y-80186D02*
G03*
X79104Y-80196I1390J387D01*
G01*
X26563Y-79225D02*
G03*
X29340Y-79235I1390J387D01*
G01*
D11*
X64823Y-80980D02*
G03*
X64823Y-80980I-591J0D01*
G01*
X15059Y-80020D02*
G03*
X15059Y-80020I-591J0D01*
G01*
D12*
X47565Y-178669D02*
G03*
X47565Y-178669I-197J0D01*
G01*
D13*
X42096Y-77362D02*
G03*
X42096Y-77362I-394J0D01*
G01*
D14*
X33421Y-191665D02*
Y-187665D01*
X26421D02*
X33421D01*
X26421Y-191665D02*
Y-187665D01*
Y-191665D02*
X33421D01*
X63150Y-79799D02*
X93071D01*
Y-102929D02*
Y-79799D01*
X63150Y-102929D02*
X93071D01*
X63150D02*
Y-79799D01*
X37161Y-217945D02*
Y-213945D01*
X30161D02*
X37161D01*
X30161Y-217945D02*
Y-213945D01*
Y-217945D02*
X37161D01*
X85457Y-67094D02*
X91854D01*
Y-78118D02*
Y-67094D01*
X85457Y-78118D02*
X91854D01*
X85457D02*
Y-67094D01*
X29921Y-162795D02*
X36319D01*
X29921D02*
Y-151772D01*
X36319D01*
Y-162795D02*
Y-151772D01*
X59646Y-178839D02*
X66043D01*
X59646D02*
Y-167815D01*
X66043D01*
Y-178839D02*
Y-167815D01*
X42630Y-182346D02*
Y-174346D01*
X28630D02*
X42630D01*
X28630Y-182346D02*
Y-174346D01*
Y-182346D02*
X42630D01*
X12634Y-79894D02*
X20634D01*
Y-65894D01*
X12634D02*
X20634D01*
X12634Y-79894D02*
Y-65894D01*
X35728Y-64764D02*
X42126D01*
X35728D02*
Y-53740D01*
X42126D01*
Y-64764D02*
Y-53740D01*
X67705Y-213606D02*
X79705D01*
Y-219606D02*
Y-213606D01*
X67705Y-219606D02*
X79705D01*
X67705D02*
Y-213606D01*
X64705Y-220606D02*
Y-212606D01*
X50705D02*
X64705D01*
X50705Y-220606D02*
Y-212606D01*
Y-220606D02*
X64705D01*
X29035Y-64961D02*
X35433D01*
X29035D02*
Y-53937D01*
X35433D01*
Y-64961D02*
Y-53937D01*
X49378Y-211965D02*
Y-204965D01*
X53378D01*
Y-211965D02*
Y-204965D01*
X49378Y-211965D02*
X53378D01*
X49748Y-200606D02*
X56748D01*
Y-204606D02*
Y-200606D01*
X49748Y-204606D02*
X56748D01*
X49748D02*
Y-200606D01*
X36744Y-146016D02*
Y-117055D01*
X66665Y-146016D02*
Y-117055D01*
X36744D02*
X66665D01*
X36744Y-146016D02*
X66665D01*
X46829Y-179181D02*
Y-169043D01*
Y-179181D02*
X55982D01*
X46829Y-169043D02*
X55982D01*
Y-179181D02*
Y-169043D01*
X37810Y-162543D02*
X45810D01*
Y-148543D01*
X37810D02*
X45810D01*
X37810Y-162543D02*
Y-148543D01*
X11012Y-1980D02*
X56512D01*
Y-40980D02*
Y-1980D01*
X11012Y-40980D02*
Y-1980D01*
Y-40980D02*
X56512D01*
X51441Y-1882D02*
X96941D01*
X51441Y-40882D02*
Y-1882D01*
X96941Y-40882D02*
Y-1882D01*
X51441Y-40882D02*
X96941D01*
X48705Y-148543D02*
X56705D01*
X48705Y-162543D02*
Y-148543D01*
Y-162543D02*
X56705D01*
Y-148543D01*
X29006Y-78051D02*
Y-65158D01*
Y-78051D02*
X42392D01*
X29006Y-65158D02*
X42392D01*
Y-78051D02*
Y-65158D01*
X59299Y-148701D02*
X67299D01*
X59299Y-162701D02*
Y-148701D01*
Y-162701D02*
X67299D01*
Y-148701D01*
X47134Y-87858D02*
Y-79858D01*
Y-87858D02*
X61134D01*
Y-79858D01*
X47134D02*
X61134D01*
X13386Y-101969D02*
Y-78839D01*
Y-101969D02*
X43307D01*
Y-78839D01*
X13386D02*
X43307D01*
X62980Y-78803D02*
Y-70803D01*
Y-78803D02*
X76980D01*
Y-70803D01*
X62980D02*
X76980D01*
X56988Y-78953D02*
Y-72555D01*
X45965Y-78953D02*
X56988D01*
X45965D02*
Y-72555D01*
X56988D01*
X57087Y-70965D02*
Y-64567D01*
X46063Y-70965D02*
X57087D01*
X46063D02*
Y-64567D01*
X57087D01*
X20556Y-65807D02*
X28556D01*
X20556Y-79807D02*
Y-65807D01*
Y-79807D02*
X28556D01*
Y-65807D01*
X80543Y-140606D02*
Y-133606D01*
X76543Y-140606D02*
X80543D01*
X76543D02*
Y-133606D01*
X80543D01*
X75555Y-132709D02*
X81953D01*
X75555D02*
Y-121685D01*
X81953D01*
Y-132709D02*
Y-121685D01*
X50295Y-189173D02*
Y-182776D01*
X61319D01*
Y-189173D02*
Y-182776D01*
X50295Y-189173D02*
X61319D01*
X-295Y-224508D02*
X99705D01*
Y394D01*
X-295D02*
X99705D01*
X-295Y-224508D02*
Y394D01*
D15*
X81953Y-133811D02*
X98953D01*
Y-219811D02*
Y-133811D01*
X81953Y-219811D02*
X98953D01*
X81953D02*
Y-133811D01*
X244Y-133606D02*
X17244D01*
Y-219606D02*
Y-133606D01*
X244Y-219606D02*
X17244D01*
X244D02*
Y-133606D01*
D16*
X27067Y-187106D02*
Y-185926D01*
X27657D01*
X27854Y-186122D01*
Y-186516D01*
X27657Y-186713D01*
X27067D01*
X27461D02*
X27854Y-187106D01*
X28248D02*
X28641D01*
X28444D01*
Y-185926D01*
X28248Y-186122D01*
X30019Y-187106D02*
X29232D01*
X30019Y-186319D01*
Y-186122D01*
X29822Y-185926D01*
X29428D01*
X29232Y-186122D01*
X76410Y-90412D02*
Y-92079D01*
X76744Y-92412D01*
X77410D01*
X77743Y-92079D01*
Y-90412D01*
X78410Y-90746D02*
X78743Y-90412D01*
X79409D01*
X79742Y-90746D01*
Y-91079D01*
X79409Y-91412D01*
X79076D01*
X79409D01*
X79742Y-91745D01*
Y-92079D01*
X79409Y-92412D01*
X78743D01*
X78410Y-92079D01*
X50405Y-130507D02*
Y-132506D01*
X51738D01*
X52404D02*
X53070D01*
X52737D01*
Y-130507D01*
X52404Y-130840D01*
X26647Y-89452D02*
Y-91118D01*
X26980Y-91451D01*
X27646D01*
X27979Y-91118D01*
Y-89452D01*
X29645Y-91451D02*
Y-89452D01*
X28646Y-90452D01*
X29979D01*
X34002Y-70556D02*
Y-72222D01*
X34335Y-72555D01*
X35002D01*
X35335Y-72222D01*
Y-70556D01*
X37334Y-72555D02*
X36001D01*
X37334Y-71222D01*
Y-70889D01*
X37001Y-70556D01*
X36335D01*
X36001Y-70889D01*
X50050Y-173063D02*
Y-174730D01*
X50383Y-175063D01*
X51050D01*
X51383Y-174730D01*
Y-173063D01*
X52049Y-175063D02*
X52716D01*
X52382D01*
Y-173063D01*
X52049Y-173397D01*
X50776Y-203606D02*
Y-201607D01*
X51776D01*
X52109Y-201940D01*
Y-202607D01*
X51776Y-202940D01*
X50776D01*
X51443D02*
X52109Y-203606D01*
X52776D02*
X53442D01*
X53109D01*
Y-201607D01*
X52776Y-201940D01*
X55441Y-203606D02*
Y-201607D01*
X54442Y-202607D01*
X55775D01*
X48898Y-209454D02*
Y-207455D01*
X49898D01*
X50231Y-207788D01*
Y-208455D01*
X49898Y-208788D01*
X48898D01*
X49565D02*
X50231Y-209454D01*
X50898D02*
X51564D01*
X51231D01*
Y-207455D01*
X50898Y-207788D01*
X52564D02*
X52897Y-207455D01*
X53564D01*
X53897Y-207788D01*
Y-208121D01*
X53564Y-208455D01*
X53230D01*
X53564D01*
X53897Y-208788D01*
Y-209121D01*
X53564Y-209454D01*
X52897D01*
X52564Y-209121D01*
X31839Y-216945D02*
Y-214946D01*
X32838D01*
X33171Y-215279D01*
Y-215945D01*
X32838Y-216278D01*
X31839D01*
X32505D02*
X33171Y-216945D01*
X33838D02*
X34504D01*
X34171D01*
Y-214946D01*
X33838Y-215279D01*
X35504Y-216945D02*
X36171D01*
X35837D01*
Y-214946D01*
X35504Y-215279D01*
X60110Y-215512D02*
Y-217511D01*
X59111D01*
X58777Y-217178D01*
Y-216512D01*
X59111Y-216178D01*
X60110D01*
X59444D02*
X58777Y-215512D01*
X58111D02*
X57444D01*
X57778D01*
Y-217511D01*
X58111Y-217178D01*
X56445D02*
X56112Y-217511D01*
X55445D01*
X55112Y-217178D01*
Y-215845D01*
X55445Y-215512D01*
X56112D01*
X56445Y-215845D01*
Y-217178D01*
X76894Y-138073D02*
Y-136073D01*
X77893D01*
X78227Y-136406D01*
Y-137073D01*
X77893Y-137406D01*
X76894D01*
X77560D02*
X78227Y-138073D01*
X78893Y-137739D02*
X79226Y-138073D01*
X79893D01*
X80226Y-137739D01*
Y-136406D01*
X79893Y-136073D01*
X79226D01*
X78893Y-136406D01*
Y-136740D01*
X79226Y-137073D01*
X80226D01*
X22850Y-73807D02*
Y-71808D01*
X23850D01*
X24183Y-72141D01*
Y-72807D01*
X23850Y-73141D01*
X22850D01*
X23517D02*
X24183Y-73807D01*
X24850Y-72141D02*
X25183Y-71808D01*
X25849D01*
X26183Y-72141D01*
Y-72474D01*
X25849Y-72807D01*
X26183Y-73141D01*
Y-73474D01*
X25849Y-73807D01*
X25183D01*
X24850Y-73474D01*
Y-73141D01*
X25183Y-72807D01*
X24850Y-72474D01*
Y-72141D01*
X25183Y-72807D02*
X25849D01*
X68331Y-75803D02*
Y-73804D01*
X69330D01*
X69664Y-74137D01*
Y-74804D01*
X69330Y-75137D01*
X68331D01*
X68997D02*
X69664Y-75803D01*
X70330Y-73804D02*
X71663D01*
Y-74137D01*
X70330Y-75470D01*
Y-75803D01*
X16728Y-74299D02*
X14729D01*
Y-73299D01*
X15062Y-72966D01*
X15729D01*
X16062Y-73299D01*
Y-74299D01*
Y-73633D02*
X16728Y-72966D01*
X14729Y-70967D02*
X15062Y-71633D01*
X15729Y-72300D01*
X16395D01*
X16728Y-71967D01*
Y-71300D01*
X16395Y-70967D01*
X16062D01*
X15729Y-71300D01*
Y-72300D01*
X35693Y-179535D02*
X33694D01*
Y-178536D01*
X34027Y-178202D01*
X34693D01*
X35026Y-178536D01*
Y-179535D01*
Y-178869D02*
X35693Y-178202D01*
X33694Y-176203D02*
Y-177536D01*
X34693D01*
X34360Y-176870D01*
Y-176536D01*
X34693Y-176203D01*
X35360D01*
X35693Y-176536D01*
Y-177203D01*
X35360Y-177536D01*
X52434Y-84858D02*
Y-82859D01*
X53434D01*
X53767Y-83192D01*
Y-83859D01*
X53434Y-84192D01*
X52434D01*
X53100D02*
X53767Y-84858D01*
X55433D02*
Y-82859D01*
X54433Y-83859D01*
X55766D01*
X61605Y-156706D02*
Y-154707D01*
X62604D01*
X62938Y-155040D01*
Y-155707D01*
X62604Y-156040D01*
X61605D01*
X62271D02*
X62938Y-156706D01*
X63604Y-155040D02*
X63937Y-154707D01*
X64604D01*
X64937Y-155040D01*
Y-155373D01*
X64604Y-155707D01*
X64271D01*
X64604D01*
X64937Y-156040D01*
Y-156373D01*
X64604Y-156706D01*
X63937D01*
X63604Y-156373D01*
X51005Y-156506D02*
Y-154507D01*
X52004D01*
X52338Y-154840D01*
Y-155507D01*
X52004Y-155840D01*
X51005D01*
X51671D02*
X52338Y-156506D01*
X54337D02*
X53004D01*
X54337Y-155173D01*
Y-154840D01*
X54004Y-154507D01*
X53337D01*
X53004Y-154840D01*
X40505Y-156506D02*
Y-154507D01*
X41504D01*
X41838Y-154840D01*
Y-155507D01*
X41504Y-155840D01*
X40505D01*
X41171D02*
X41838Y-156506D01*
X42504D02*
X43170D01*
X42837D01*
Y-154507D01*
X42504Y-154840D01*
X90820Y-175812D02*
X91486D01*
X91153D01*
Y-177478D01*
X91486Y-177811D01*
X91820D01*
X92153Y-177478D01*
X89154Y-177811D02*
Y-175812D01*
X90153Y-176811D01*
X88820D01*
X9072Y-175607D02*
X9738D01*
X9405D01*
Y-177273D01*
X9738Y-177606D01*
X10071D01*
X10405Y-177273D01*
X8405Y-175940D02*
X8072Y-175607D01*
X7406D01*
X7073Y-175940D01*
Y-176273D01*
X7406Y-176607D01*
X7739D01*
X7406D01*
X7073Y-176940D01*
Y-177273D01*
X7406Y-177606D01*
X8072D01*
X8405Y-177273D01*
X73891Y-24545D02*
X73225D01*
X73558D01*
Y-26211D01*
X73225Y-26544D01*
X72891D01*
X72558Y-26211D01*
X75890Y-26544D02*
X74558D01*
X75890Y-25211D01*
Y-24878D01*
X75557Y-24545D01*
X74891D01*
X74558Y-24878D01*
X33766Y-26639D02*
X33099D01*
X33433D01*
Y-24973D01*
X33099Y-24639D01*
X32766D01*
X32433Y-24973D01*
X34432Y-24639D02*
X35099D01*
X34766D01*
Y-26639D01*
X34432Y-26305D01*
X72357Y-215607D02*
Y-217606D01*
X73356D01*
X73690Y-217273D01*
Y-215940D01*
X73356Y-215607D01*
X72357D01*
X74356Y-217606D02*
X75023D01*
X74689D01*
Y-215607D01*
X74356Y-215940D01*
X55487Y-185259D02*
X55154Y-184926D01*
X54488D01*
X54154Y-185259D01*
Y-186592D01*
X54488Y-186925D01*
X55154D01*
X55487Y-186592D01*
X56154D02*
X56487Y-186925D01*
X57153D01*
X57487Y-186592D01*
Y-185259D01*
X57153Y-184926D01*
X56487D01*
X56154Y-185259D01*
Y-185592D01*
X56487Y-185925D01*
X57487D01*
X78438Y-126531D02*
X78104Y-126198D01*
X77438D01*
X77105Y-126531D01*
Y-127864D01*
X77438Y-128197D01*
X78104D01*
X78438Y-127864D01*
X79104Y-126531D02*
X79437Y-126198D01*
X80104D01*
X80437Y-126531D01*
Y-126864D01*
X80104Y-127197D01*
X80437Y-127530D01*
Y-127864D01*
X80104Y-128197D01*
X79437D01*
X79104Y-127864D01*
Y-127530D01*
X79437Y-127197D01*
X79104Y-126864D01*
Y-126531D01*
X79437Y-127197D02*
X80104D01*
X51208Y-67143D02*
X50875Y-66810D01*
X50208D01*
X49875Y-67143D01*
Y-68476D01*
X50208Y-68809D01*
X50875D01*
X51208Y-68476D01*
X51874Y-66810D02*
X53207D01*
Y-67143D01*
X51874Y-68476D01*
Y-68809D01*
X51109Y-75137D02*
X50776Y-74804D01*
X50110D01*
X49776Y-75137D01*
Y-76470D01*
X50110Y-76803D01*
X50776D01*
X51109Y-76470D01*
X53109Y-74804D02*
X52442Y-75137D01*
X51776Y-75804D01*
Y-76470D01*
X52109Y-76803D01*
X52775D01*
X53109Y-76470D01*
Y-76137D01*
X52775Y-75804D01*
X51776D01*
X89038Y-70940D02*
X88704Y-70607D01*
X88038D01*
X87705Y-70940D01*
Y-72273D01*
X88038Y-72606D01*
X88704D01*
X89038Y-72273D01*
X91037Y-70607D02*
X89704D01*
Y-71607D01*
X90371Y-71273D01*
X90704D01*
X91037Y-71607D01*
Y-72273D01*
X90704Y-72606D01*
X90037D01*
X89704Y-72273D01*
X39450Y-58727D02*
X39783Y-58393D01*
Y-57727D01*
X39450Y-57394D01*
X38117D01*
X37784Y-57727D01*
Y-58393D01*
X38117Y-58727D01*
X37784Y-60393D02*
X39783D01*
X38783Y-59393D01*
Y-60726D01*
X32852Y-59627D02*
X33185Y-59960D01*
X33852D01*
X34185Y-59627D01*
Y-58294D01*
X33852Y-57961D01*
X33185D01*
X32852Y-58294D01*
X32186Y-59627D02*
X31852Y-59960D01*
X31186D01*
X30853Y-59627D01*
Y-59294D01*
X31186Y-58960D01*
X31519D01*
X31186D01*
X30853Y-58627D01*
Y-58294D01*
X31186Y-57961D01*
X31852D01*
X32186Y-58294D01*
X62528Y-172698D02*
X62195Y-172364D01*
X61528D01*
X61195Y-172698D01*
Y-174031D01*
X61528Y-174364D01*
X62195D01*
X62528Y-174031D01*
X64527Y-174364D02*
X63195D01*
X64527Y-173031D01*
Y-172698D01*
X64194Y-172364D01*
X63528D01*
X63195Y-172698D01*
X33079Y-156636D02*
X32746Y-156303D01*
X32080D01*
X31747Y-156636D01*
Y-157969D01*
X32080Y-158302D01*
X32746D01*
X33079Y-157969D01*
X33746Y-158302D02*
X34412D01*
X34079D01*
Y-156303D01*
X33746Y-156636D01*
M02*
