G04*
G04 #@! TF.GenerationSoftware,Altium Limited,Altium Designer,18.1.5 (160)*
G04*
G04 Layer_Physical_Order=1*
G04 Layer_Color=255*
%FSLAX25Y25*%
%MOIN*%
G70*
G01*
G75*
%ADD17R,0.01575X0.02362*%
%ADD18R,0.05709X0.02362*%
%ADD19R,0.03347X0.03150*%
%ADD20R,0.03937X0.04921*%
%ADD21R,0.05315X0.03858*%
%ADD22R,0.03150X0.03937*%
%ADD23R,0.02362X0.01575*%
%ADD24R,0.04331X0.07874*%
%ADD25R,0.07874X0.04331*%
%ADD26R,0.04724X0.02441*%
%ADD27R,0.01063X0.01457*%
%ADD28R,0.04921X0.03937*%
%ADD29R,0.02559X0.02165*%
%ADD30R,0.03150X0.03347*%
%ADD51C,0.01181*%
%ADD52C,0.01575*%
%ADD53C,0.01968*%
%ADD54C,0.01000*%
%ADD55C,0.02362*%
%ADD56C,0.01772*%
%ADD57R,0.08858X0.08858*%
%ADD58C,0.08858*%
%ADD59C,0.07874*%
%ADD60R,0.07874X0.07874*%
%ADD61C,0.01800*%
%ADD62C,0.02559*%
G36*
X99410Y-55594D02*
X98909Y-55746D01*
X98606Y-55292D01*
X86964Y-43650D01*
Y-25311D01*
X90370D01*
Y-14453D01*
X79512D01*
Y-25311D01*
X82918D01*
Y-44488D01*
X83072Y-45262D01*
X83510Y-45919D01*
X95152Y-57561D01*
Y-89558D01*
X94712Y-89794D01*
X94639Y-89746D01*
X93898Y-89598D01*
X93156Y-89746D01*
X92528Y-90166D01*
X92108Y-90794D01*
X92049Y-91091D01*
X91348Y-91791D01*
X84886D01*
Y-96153D01*
X92594D01*
Y-95128D01*
X92607Y-95119D01*
X94342Y-93384D01*
X94639Y-93325D01*
X94712Y-93277D01*
X95152Y-93512D01*
Y-110451D01*
X82329Y-123274D01*
X81891Y-123931D01*
X81737Y-124705D01*
Y-127234D01*
X81378Y-127575D01*
X76032D01*
Y-132724D01*
X76922D01*
Y-133547D01*
X76362D01*
Y-134156D01*
X76314Y-134188D01*
X74555Y-135947D01*
X74259Y-136005D01*
X73630Y-136425D01*
X73210Y-137054D01*
X73063Y-137795D01*
X73210Y-138537D01*
X73584Y-139095D01*
X67609Y-145070D01*
X67214Y-145661D01*
X67075Y-146358D01*
X67075Y-146358D01*
Y-156300D01*
X66760Y-156669D01*
X66575Y-156669D01*
X59839D01*
Y-157859D01*
X56165D01*
Y-156512D01*
X49244D01*
Y-157859D01*
X45271D01*
Y-156512D01*
X40703D01*
X40512Y-156050D01*
X41987Y-154575D01*
X45271D01*
Y-149201D01*
X45771Y-149050D01*
X45874Y-149205D01*
X46503Y-149624D01*
X47244Y-149772D01*
X47985Y-149624D01*
X48614Y-149205D01*
X48744Y-149010D01*
X49244Y-149161D01*
Y-154575D01*
X56165D01*
Y-150439D01*
X58784Y-147821D01*
X62411D01*
X63032Y-147697D01*
X63558Y-147346D01*
X70190Y-140714D01*
X70542Y-140188D01*
X70665Y-139567D01*
Y-126704D01*
X81855Y-115514D01*
X82207Y-114988D01*
X82330Y-114367D01*
Y-91598D01*
X87617Y-86311D01*
X92594D01*
Y-81949D01*
X90326D01*
Y-78134D01*
X91378D01*
Y-72984D01*
X86032D01*
Y-78134D01*
X87083D01*
Y-81949D01*
X84886D01*
Y-84455D01*
X79562Y-89779D01*
X79210Y-90305D01*
X79087Y-90926D01*
Y-113695D01*
X67897Y-124885D01*
X67545Y-125411D01*
X67422Y-126032D01*
Y-138895D01*
X63589Y-142729D01*
X63467Y-142746D01*
X63039Y-142539D01*
Y-135992D01*
X64319D01*
Y-126118D01*
X57988D01*
Y-135992D01*
X59796D01*
Y-138310D01*
X59409Y-138627D01*
X59106Y-138567D01*
X58365Y-138714D01*
X58113Y-138882D01*
X56642D01*
Y-137339D01*
X46768D01*
Y-143669D01*
X48179D01*
X48370Y-144131D01*
X46363Y-146138D01*
X45874Y-146465D01*
X45454Y-147093D01*
X45307Y-147835D01*
X45376Y-148181D01*
X44957Y-148638D01*
X41987D01*
X40413Y-147064D01*
Y-143799D01*
X40244Y-142948D01*
X39761Y-142227D01*
X39040Y-141745D01*
X38189Y-141575D01*
X37338Y-141745D01*
X36617Y-142227D01*
X36134Y-142948D01*
X35965Y-143799D01*
Y-147985D01*
X35965Y-147985D01*
X36134Y-148836D01*
X36617Y-149557D01*
X38350Y-151291D01*
Y-151922D01*
X37710Y-152561D01*
X37283Y-152276D01*
X36432Y-152107D01*
X36432Y-152107D01*
X35744D01*
Y-151756D01*
X30398D01*
Y-156905D01*
X35535D01*
Y-165515D01*
X35535Y-165515D01*
X35704Y-166366D01*
X36187Y-167087D01*
X42264Y-173164D01*
X42549Y-173592D01*
X43239Y-174053D01*
X43237Y-174303D01*
X43156Y-174553D01*
X43102D01*
X42517Y-174670D01*
X42194Y-174886D01*
X41278D01*
X16851Y-150460D01*
X16325Y-150108D01*
X15705Y-149985D01*
X13416D01*
X13057Y-149117D01*
X12265Y-148085D01*
X11234Y-147294D01*
X10629Y-147043D01*
X10729Y-146543D01*
X13681D01*
Y-136669D01*
X10273D01*
Y-121646D01*
X23981Y-107938D01*
X24333Y-107412D01*
X24456Y-106791D01*
Y-101164D01*
X26552Y-99068D01*
X27049Y-99117D01*
X27174Y-99303D01*
X27802Y-99723D01*
X28543Y-99870D01*
X29285Y-99723D01*
X29913Y-99303D01*
X30319Y-98695D01*
X34578Y-94437D01*
X35122D01*
Y-95193D01*
X42831D01*
Y-90831D01*
X36034D01*
X35767Y-90331D01*
X35806Y-90272D01*
X42831D01*
Y-89515D01*
X46161D01*
X46782Y-89392D01*
X47308Y-89040D01*
X49030Y-87319D01*
X53165D01*
Y-81953D01*
X53665Y-81746D01*
X55102Y-83183D01*
Y-87319D01*
X59286D01*
X59438Y-87819D01*
X59310Y-87905D01*
X54895Y-92320D01*
X54475Y-92403D01*
X53847Y-92823D01*
X53427Y-93452D01*
X53279Y-94193D01*
X53427Y-94934D01*
X53847Y-95563D01*
X53924Y-95614D01*
X53772Y-96114D01*
X42831D01*
Y-95752D01*
X35122D01*
Y-100114D01*
X38118D01*
Y-120612D01*
X23755Y-134975D01*
X23403Y-135502D01*
X23280Y-136122D01*
Y-151517D01*
X23013Y-151916D01*
X22866Y-152657D01*
X23013Y-153399D01*
X23433Y-154027D01*
X24062Y-154447D01*
X24803Y-154595D01*
X25545Y-154447D01*
X26173Y-154027D01*
X26593Y-153399D01*
X26740Y-152657D01*
X26593Y-151916D01*
X26523Y-151812D01*
Y-136794D01*
X40887Y-122430D01*
X41238Y-121904D01*
X41362Y-121283D01*
Y-100114D01*
X42831D01*
Y-99358D01*
X53723D01*
X53875Y-99858D01*
X53650Y-100008D01*
X53230Y-100637D01*
X53083Y-101378D01*
X53230Y-102119D01*
X53650Y-102748D01*
X54278Y-103168D01*
X55020Y-103315D01*
X55761Y-103168D01*
X56012Y-103000D01*
X64996D01*
X65617Y-102876D01*
X66143Y-102525D01*
X67593Y-101075D01*
X71335D01*
Y-96713D01*
X63626D01*
Y-99756D01*
X58088D01*
X58039Y-99256D01*
X58148Y-99234D01*
X58674Y-98883D01*
X61963Y-95594D01*
X63626D01*
Y-96153D01*
X71335D01*
Y-91791D01*
X63626D01*
Y-92351D01*
X61291D01*
X60671Y-92474D01*
X60145Y-92826D01*
X57107Y-95863D01*
X57004Y-95838D01*
X56784Y-95267D01*
X57006Y-94934D01*
X57041Y-94761D01*
X61128Y-90673D01*
X63626D01*
Y-91232D01*
X71335D01*
Y-90663D01*
X71904Y-90549D01*
X72430Y-90198D01*
X75064Y-87564D01*
X75416Y-87038D01*
X75539Y-86417D01*
Y-78264D01*
X76886D01*
Y-71342D01*
X70949D01*
Y-78264D01*
X72296D01*
Y-82093D01*
X72146Y-82216D01*
X72073Y-82231D01*
X71335D01*
Y-81949D01*
X69102D01*
Y-76240D01*
X69012Y-75787D01*
Y-71342D01*
X63075D01*
Y-78264D01*
X65859D01*
Y-81949D01*
X63626D01*
Y-82508D01*
X61039D01*
Y-80398D01*
X56904D01*
X55166Y-78660D01*
X54640Y-78309D01*
X54020Y-78185D01*
X53199D01*
X51098Y-76085D01*
Y-73130D01*
X50451D01*
Y-70488D01*
X51197D01*
Y-67588D01*
X51228Y-67431D01*
Y-63583D01*
X51105Y-62962D01*
X50753Y-62436D01*
X48459Y-60142D01*
X47933Y-59791D01*
X47313Y-59667D01*
X41551D01*
Y-59630D01*
X36205D01*
Y-63475D01*
X35743Y-63666D01*
X34858Y-62781D01*
Y-59827D01*
X29512D01*
Y-64976D01*
X32466D01*
X36280Y-68790D01*
X36356Y-69422D01*
X28479Y-77299D01*
X28016Y-77108D01*
Y-73776D01*
X23154D01*
X22786Y-73276D01*
X22893Y-72736D01*
X22724Y-71885D01*
X22242Y-71164D01*
X20291Y-69213D01*
Y-66284D01*
X18759D01*
Y-27890D01*
X21239Y-25409D01*
X28441D01*
Y-14551D01*
X17583D01*
Y-22776D01*
X14963Y-25396D01*
X14481Y-26118D01*
X14312Y-26969D01*
X14312Y-26969D01*
Y-66284D01*
X12976D01*
Y-72142D01*
X16930D01*
X17972Y-73184D01*
X17781Y-73646D01*
X12976D01*
Y-76364D01*
X11452Y-77889D01*
X11100Y-78415D01*
X10977Y-79036D01*
Y-84072D01*
X1511Y-93538D01*
X1159Y-94064D01*
X1036Y-94685D01*
Y-145520D01*
X1159Y-146140D01*
X1511Y-146666D01*
X4294Y-149449D01*
X3934Y-150318D01*
X3765Y-151606D01*
X3934Y-152895D01*
X4432Y-154096D01*
X5223Y-155127D01*
X6254Y-155919D01*
X7261Y-156336D01*
Y-156877D01*
X6254Y-157294D01*
X5223Y-158085D01*
X4432Y-159116D01*
X3934Y-160318D01*
X3765Y-161606D01*
X3934Y-162895D01*
X4432Y-164096D01*
X5223Y-165127D01*
X6254Y-165919D01*
X7261Y-166336D01*
Y-166877D01*
X6254Y-167294D01*
X5223Y-168085D01*
X4432Y-169116D01*
X3934Y-170317D01*
X3765Y-171606D01*
X3934Y-172895D01*
X4432Y-174096D01*
X5223Y-175127D01*
X6254Y-175919D01*
X7261Y-176336D01*
Y-176877D01*
X6254Y-177294D01*
X5223Y-178085D01*
X4432Y-179116D01*
X3934Y-180317D01*
X3765Y-181606D01*
X3934Y-182895D01*
X4432Y-184096D01*
X5223Y-185127D01*
X6254Y-185919D01*
X7261Y-186336D01*
Y-186877D01*
X6254Y-187294D01*
X5223Y-188085D01*
X4432Y-189117D01*
X3934Y-190317D01*
X3765Y-191606D01*
X3934Y-192895D01*
X4432Y-194096D01*
X5223Y-195127D01*
X6254Y-195919D01*
X7261Y-196336D01*
Y-196877D01*
X6254Y-197294D01*
X5223Y-198085D01*
X4432Y-199117D01*
X3934Y-200318D01*
X3765Y-201606D01*
X3934Y-202895D01*
X4432Y-204096D01*
X5223Y-205127D01*
X6254Y-205919D01*
X7455Y-206416D01*
X8744Y-206586D01*
X10033Y-206416D01*
X11234Y-205919D01*
X12265Y-205127D01*
X13057Y-204096D01*
X13554Y-202895D01*
X13724Y-201606D01*
X13554Y-200318D01*
X13278Y-199650D01*
X21440Y-191488D01*
X26362D01*
Y-191847D01*
X29969D01*
Y-215846D01*
X29978Y-215891D01*
X29967Y-215945D01*
X30102Y-216625D01*
Y-218126D01*
X31352D01*
X34959Y-221734D01*
X35583Y-222150D01*
X36319Y-222297D01*
X45276D01*
X46011Y-222150D01*
X46635Y-221734D01*
X49840Y-218529D01*
X50799D01*
Y-220067D01*
X56736D01*
Y-216456D01*
X58211Y-214980D01*
X58673Y-215172D01*
Y-220067D01*
X64610D01*
Y-218228D01*
X67882D01*
Y-219575D01*
X73032D01*
Y-213638D01*
X67882D01*
Y-214985D01*
X64610D01*
Y-213146D01*
X60689D01*
X60422Y-212646D01*
X60550Y-212454D01*
X60697Y-211713D01*
X60550Y-210971D01*
X60455Y-210830D01*
X60691Y-210389D01*
X77362D01*
X78136Y-210235D01*
X78793Y-209797D01*
X85215Y-203374D01*
X85805Y-203491D01*
X86140Y-204301D01*
X86932Y-205332D01*
X87963Y-206123D01*
X89164Y-206621D01*
X90453Y-206791D01*
X91742Y-206621D01*
X92943Y-206123D01*
X93974Y-205332D01*
X94765Y-204301D01*
X95263Y-203100D01*
X95432Y-201811D01*
X95263Y-200522D01*
X94765Y-199321D01*
X93974Y-198290D01*
X92943Y-197499D01*
X91936Y-197082D01*
Y-196540D01*
X92943Y-196124D01*
X93974Y-195332D01*
X94765Y-194301D01*
X95263Y-193100D01*
X95432Y-191811D01*
X95263Y-190522D01*
X94765Y-189321D01*
X93974Y-188290D01*
X92943Y-187499D01*
X91936Y-187082D01*
Y-186540D01*
X92943Y-186124D01*
X93974Y-185332D01*
X94765Y-184301D01*
X95263Y-183100D01*
X95432Y-181811D01*
X95263Y-180522D01*
X94765Y-179321D01*
X93974Y-178290D01*
X92943Y-177499D01*
X91936Y-177082D01*
Y-176540D01*
X92943Y-176123D01*
X93974Y-175332D01*
X94765Y-174301D01*
X95263Y-173100D01*
X95432Y-171811D01*
X95263Y-170522D01*
X94765Y-169321D01*
X93974Y-168290D01*
X92943Y-167499D01*
X91936Y-167082D01*
Y-166540D01*
X92943Y-166123D01*
X93974Y-165332D01*
X94765Y-164301D01*
X95263Y-163100D01*
X95432Y-161811D01*
X95263Y-160522D01*
X94765Y-159321D01*
X93974Y-158290D01*
X92943Y-157499D01*
X91936Y-157082D01*
Y-156540D01*
X92943Y-156123D01*
X93974Y-155332D01*
X94765Y-154301D01*
X95263Y-153100D01*
X95432Y-151811D01*
X95263Y-150522D01*
X94765Y-149321D01*
X93974Y-148290D01*
X92943Y-147499D01*
X92338Y-147248D01*
X92437Y-146748D01*
X95390D01*
Y-136874D01*
X85783D01*
Y-125543D01*
X98606Y-112720D01*
X98909Y-112266D01*
X99410Y-112417D01*
Y-223130D01*
X98622Y-223917D01*
X-197D01*
Y-394D01*
X-98Y-295D01*
X0Y0D01*
X99410D01*
Y-55594D01*
D02*
G37*
G36*
X45941Y-65365D02*
X46047Y-65447D01*
Y-70488D01*
X47207D01*
Y-73130D01*
X45949D01*
Y-73674D01*
X42535D01*
Y-73213D01*
X37976D01*
Y-77378D01*
X42535D01*
Y-76917D01*
X45949D01*
Y-77596D01*
X42557Y-80988D01*
X35122D01*
Y-85350D01*
X42831D01*
Y-84397D01*
X43063D01*
X43684Y-84274D01*
X44210Y-83922D01*
X46766Y-81366D01*
X47228Y-81557D01*
Y-84533D01*
X45490Y-86272D01*
X42831D01*
Y-85909D01*
X35122D01*
Y-86334D01*
X34813Y-86396D01*
X34286Y-86747D01*
X21688Y-99345D01*
X21336Y-99871D01*
X21213Y-100492D01*
Y-106120D01*
X7597Y-119735D01*
X7246Y-120261D01*
X7122Y-120882D01*
X7215Y-121346D01*
Y-136669D01*
X4279D01*
Y-95357D01*
X12598Y-87037D01*
X13862Y-88301D01*
Y-90272D01*
X21571D01*
Y-85909D01*
X16461D01*
X16422Y-85850D01*
X16689Y-85350D01*
X21571D01*
Y-84791D01*
X24902D01*
X25522Y-84668D01*
X26048Y-84316D01*
X40467Y-69898D01*
X42535D01*
Y-67829D01*
X44736Y-65628D01*
X45033Y-65569D01*
X45547Y-65225D01*
X45941Y-65365D01*
D02*
G37*
G36*
X59839Y-162606D02*
X66575D01*
X66760Y-162606D01*
X67075Y-162976D01*
Y-176312D01*
X64603Y-178784D01*
X56234D01*
Y-177511D01*
X56326Y-177047D01*
X56234Y-176584D01*
Y-175878D01*
X55829D01*
X54887Y-174936D01*
X54361Y-174584D01*
X53740Y-174461D01*
X53276Y-174553D01*
X45230D01*
X45149Y-174303D01*
X45146Y-174053D01*
X45836Y-173592D01*
X46340Y-172838D01*
X46517Y-171949D01*
X46340Y-171059D01*
X45836Y-170305D01*
X45409Y-170020D01*
X39983Y-164594D01*
Y-162449D01*
X42636D01*
X49144Y-168957D01*
Y-170519D01*
X49234Y-170973D01*
Y-172248D01*
X56234D01*
Y-172141D01*
X60122D01*
Y-172949D01*
X65469D01*
Y-167799D01*
X60122D01*
Y-168898D01*
X56234D01*
Y-168791D01*
X55467D01*
X55275Y-168329D01*
X57149Y-166455D01*
X57446Y-166396D01*
X58074Y-165976D01*
X58495Y-165348D01*
X58642Y-164606D01*
X58495Y-163865D01*
X58074Y-163236D01*
X57446Y-162817D01*
X56705Y-162669D01*
X56562Y-162697D01*
X56165Y-162267D01*
Y-161102D01*
X59839D01*
Y-162606D01*
D02*
G37*
G36*
X70319Y-178930D02*
Y-187942D01*
X57678Y-200583D01*
X56807D01*
Y-200425D01*
X52038D01*
X50937Y-199324D01*
Y-188598D01*
X55429D01*
Y-183252D01*
X54559D01*
Y-182429D01*
X65358D01*
X65358Y-182429D01*
X66056Y-182290D01*
X66647Y-181895D01*
X69819Y-178723D01*
X70319Y-178930D01*
D02*
G37*
%LPC*%
G36*
X56642Y-118441D02*
X46768D01*
Y-124772D01*
X56642D01*
Y-118441D01*
D02*
G37*
G36*
X45421Y-126118D02*
X39091D01*
Y-135992D01*
X45421D01*
Y-126118D01*
D02*
G37*
%LPD*%
D17*
X31693Y-189665D02*
D03*
X28150D02*
D03*
X35433Y-215945D02*
D03*
X31890D02*
D03*
X55020Y-202606D02*
D03*
X51476D02*
D03*
D18*
X67480Y-84130D02*
D03*
Y-89051D02*
D03*
Y-93972D02*
D03*
Y-98894D02*
D03*
X88740Y-84130D02*
D03*
Y-93972D02*
D03*
Y-98894D02*
D03*
Y-89051D02*
D03*
X38976Y-88090D02*
D03*
Y-97933D02*
D03*
Y-93012D02*
D03*
Y-83169D02*
D03*
X17717Y-97933D02*
D03*
Y-93012D02*
D03*
Y-88090D02*
D03*
Y-83169D02*
D03*
D19*
X88705Y-75559D02*
D03*
Y-69653D02*
D03*
X33071Y-154331D02*
D03*
Y-160236D02*
D03*
X62795Y-170374D02*
D03*
Y-176279D02*
D03*
X38878Y-56299D02*
D03*
Y-62205D02*
D03*
X32185Y-56496D02*
D03*
Y-62402D02*
D03*
X78705Y-124244D02*
D03*
Y-130150D02*
D03*
D20*
X39567Y-178347D02*
D03*
X31693D02*
D03*
X61642Y-216606D02*
D03*
X53768D02*
D03*
X50197Y-83858D02*
D03*
X58071D02*
D03*
X66043Y-74803D02*
D03*
X73917D02*
D03*
D21*
X16634Y-76575D02*
D03*
Y-69213D02*
D03*
D22*
X76953Y-216606D02*
D03*
X70457D02*
D03*
D23*
X51378Y-206693D02*
D03*
Y-210236D02*
D03*
X78543Y-138878D02*
D03*
Y-135335D02*
D03*
D24*
X42256Y-131055D02*
D03*
X61154D02*
D03*
D25*
X51705Y-121606D02*
D03*
Y-140504D02*
D03*
D26*
X51750Y-174063D02*
D03*
D27*
X50766Y-177606D02*
D03*
X52734D02*
D03*
X54703D02*
D03*
X48797D02*
D03*
Y-170519D02*
D03*
X52734D02*
D03*
X54703D02*
D03*
X50766D02*
D03*
D28*
X41810Y-159480D02*
D03*
Y-151606D02*
D03*
X52705D02*
D03*
Y-159480D02*
D03*
X63299Y-151764D02*
D03*
Y-159638D02*
D03*
X24556Y-68870D02*
D03*
Y-76744D02*
D03*
D29*
X40256Y-75295D02*
D03*
Y-67815D02*
D03*
X30748Y-71555D02*
D03*
D30*
X48524Y-75803D02*
D03*
X54429D02*
D03*
X48622Y-67815D02*
D03*
X54528D02*
D03*
X58760Y-185925D02*
D03*
X52854D02*
D03*
D51*
X11516Y-93012D02*
X17717D01*
X62205Y-175689D02*
X62894Y-175000D01*
X62205Y-175689D02*
X62795Y-176279D01*
X60579Y-174063D02*
X62205Y-175689D01*
X51750Y-174063D02*
X60579D01*
X48797Y-171110D02*
Y-170519D01*
Y-171110D02*
X51750Y-174063D01*
X65847Y-185925D02*
X66142Y-185630D01*
X58760Y-185925D02*
X65847D01*
X62894Y-175000D02*
X65650D01*
X53740Y-176083D02*
X54705Y-177047D01*
X79429Y-124213D02*
Y-119095D01*
X55315Y-75984D02*
X60433D01*
X30610Y-71850D02*
Y-66732D01*
X24606Y-68307D02*
Y-63189D01*
X32185Y-56496D02*
Y-51378D01*
X88705Y-70004D02*
Y-69653D01*
Y-70004D02*
X93185Y-74484D01*
Y-85970D02*
Y-74484D01*
X90217Y-88938D02*
X93185Y-85970D01*
X55216Y-68110D02*
X60335D01*
X88705Y-69653D02*
Y-64535D01*
X88740Y-104012D02*
Y-98894D01*
X8744Y-211606D02*
X15453D01*
Y-211598D01*
X20579Y-216724D01*
X76953Y-216606D02*
X81748Y-211811D01*
X90453D01*
X76953Y-216606D02*
Y-211488D01*
X46555Y-168277D02*
X48797Y-170519D01*
X33465Y-165748D02*
Y-160630D01*
X64941Y-151279D02*
Y-146161D01*
X50766Y-170519D02*
Y-168285D01*
X41961Y-159480D02*
X50766Y-168285D01*
X2657Y-94685D02*
X12598Y-84744D01*
X15846Y-87992D01*
X33906Y-92815D02*
X38583D01*
X28778Y-97943D02*
X33906Y-92815D01*
X48829Y-68209D02*
X49606Y-67431D01*
X38878Y-61289D02*
X47313D01*
X48917Y-183169D02*
Y-182776D01*
X49114Y-182579D01*
X41961Y-159480D02*
X52705D01*
X41810D02*
X41961D01*
X40453Y-177362D02*
Y-176354D01*
X15705Y-151606D02*
X40453Y-176354D01*
X48797Y-177606D02*
X48799Y-177587D01*
X47313Y-61289D02*
X49606Y-63583D01*
Y-67431D02*
Y-63583D01*
X38878Y-62205D02*
Y-61289D01*
X39740Y-121283D02*
Y-97736D01*
X57528D02*
X61291Y-93972D01*
X39740Y-97736D02*
X57528D01*
X39272Y-87894D02*
X46161D01*
X35433D02*
X39272D01*
X46161D02*
X50197Y-83858D01*
X22835Y-100492D02*
X35433Y-87894D01*
X48016Y-75295D02*
X48524Y-75803D01*
X40256Y-75295D02*
X48016D01*
X51378Y-202705D02*
X51476Y-202606D01*
X31791Y-215846D02*
X31890Y-215945D01*
X64996Y-101378D02*
X67480Y-98894D01*
X55020Y-101378D02*
X64996D01*
X42028Y-82776D02*
X43063D01*
X12598Y-79036D02*
X15059Y-76575D01*
X12598Y-84744D02*
Y-79036D01*
X24902Y-83169D02*
X40256Y-67815D01*
X19441Y-83169D02*
X24902D01*
X80709Y-90926D02*
X87146Y-84489D01*
X80709Y-114367D02*
Y-90926D01*
X69044Y-126032D02*
X80709Y-114367D01*
X54705Y-170520D02*
X62347D01*
X63299Y-152959D02*
Y-151764D01*
X67480Y-84130D02*
X67504Y-84153D01*
X53768Y-216606D02*
X53866D01*
X52528Y-79807D02*
X54020D01*
X58071Y-83858D01*
X48524Y-75803D02*
X52528Y-79807D01*
X43063Y-82776D02*
X48524Y-77315D01*
X58071Y-83858D02*
X58342Y-84130D01*
X67480D01*
X66043Y-74803D02*
X67480Y-76240D01*
Y-84130D02*
Y-76240D01*
X40256Y-67815D02*
X44291Y-63779D01*
X54429Y-75803D02*
X54528Y-75705D01*
X32185Y-56496D02*
X32382Y-56299D01*
X64842Y-19980D02*
X64941Y-19882D01*
X16634Y-69213D02*
X17146D01*
X91461Y-93972D02*
X93898Y-91535D01*
X88740Y-93972D02*
X91461D01*
X37598Y-67815D02*
X40256D01*
X32185Y-62402D02*
X37598Y-67815D01*
X75000Y-137795D02*
X77461Y-135335D01*
X78543D01*
X76378Y-138878D02*
X78543D01*
Y-130311D02*
X78705Y-130150D01*
X78543Y-135335D02*
Y-130311D01*
X59280Y-140504D02*
X59327Y-140551D01*
X59106Y-140504D02*
X59280D01*
X51705D02*
X59106D01*
X48524Y-77315D02*
Y-75803D01*
X48829Y-75498D01*
Y-68209D01*
X88705Y-84095D02*
Y-75559D01*
X69044Y-139567D02*
Y-126032D01*
X62411Y-146199D02*
X69044Y-139567D01*
X58112Y-146199D02*
X62411D01*
X52705Y-151606D02*
X58112Y-146199D01*
X55315Y-94193D02*
X60457Y-89051D01*
X67480D01*
X2657Y-145520D02*
Y-94685D01*
Y-145520D02*
X8744Y-151606D01*
Y-120882D02*
X22835Y-106791D01*
Y-100492D01*
X24902Y-152559D02*
Y-136122D01*
X39740Y-121283D01*
X73917Y-86417D02*
Y-74803D01*
X71284Y-89051D02*
X73917Y-86417D01*
X67480Y-89051D02*
X71284D01*
X61417Y-143799D02*
Y-131319D01*
X52736Y-168575D02*
X56705Y-164606D01*
X52736Y-170520D02*
Y-168575D01*
X61291Y-93972D02*
X67480D01*
X8744Y-151606D02*
X15705D01*
X52705Y-159480D02*
X63142D01*
X61642Y-216606D02*
X70457D01*
D52*
X68898Y-177067D02*
Y-146358D01*
X65358Y-180606D02*
X68898Y-177067D01*
X52736Y-180606D02*
X65358D01*
X46358Y-181595D02*
X48797Y-179156D01*
X31791Y-215846D02*
Y-179693D01*
X49114Y-200079D02*
X51673Y-202638D01*
X49114Y-200079D02*
Y-182579D01*
X51705Y-143374D02*
Y-140504D01*
X47244Y-147835D02*
X51705Y-143374D01*
X48797Y-179156D02*
Y-177606D01*
X51378Y-206693D02*
Y-202705D01*
X8744Y-201606D02*
X20685Y-189665D01*
X28248D01*
X68898Y-146358D02*
X76378Y-138878D01*
X49114Y-182579D02*
X50768Y-180925D01*
Y-177606D01*
X52736Y-180606D02*
Y-177606D01*
Y-185807D02*
Y-180606D01*
Y-185807D02*
X52854Y-185925D01*
D53*
X72342Y-188779D02*
Y-152264D01*
X58516Y-202606D02*
X72342Y-188779D01*
X97176Y-111289D02*
Y-56723D01*
X83760Y-124705D02*
X97176Y-111289D01*
X84941Y-44488D02*
X97176Y-56723D01*
X85122Y-200606D02*
X91705D01*
X52264Y-210039D02*
X53937Y-208366D01*
X77362D02*
X85122Y-200606D01*
X53937Y-208366D02*
X77362D01*
X35433Y-215945D02*
X41142Y-210236D01*
X51378D01*
X72342Y-152264D02*
X83760Y-140847D01*
X84941Y-44488D02*
Y-19882D01*
X83760Y-140847D02*
Y-124705D01*
X55020Y-202606D02*
X58516D01*
D54*
X16634Y-76744D02*
X24556D01*
X54705Y-177606D02*
Y-177047D01*
X43102Y-176083D02*
X53740D01*
X40748Y-178437D02*
X43102Y-176083D01*
X62347Y-170520D02*
X62705Y-170161D01*
X15059Y-76575D02*
X16634D01*
X88705Y-84095D02*
X88740Y-84130D01*
X55216Y-94193D02*
X55315D01*
X8744Y-141606D02*
Y-120882D01*
X24803Y-152657D02*
X24902Y-152559D01*
X61154Y-131055D02*
X61417Y-131319D01*
X63142Y-159480D02*
X63299Y-159638D01*
D55*
X17717Y-97933D02*
Y-93012D01*
Y-102756D02*
Y-97933D01*
X32382Y-56299D02*
X38878D01*
X43012Y-19980D02*
X64842D01*
X38878Y-56299D02*
X43012Y-52165D01*
Y-19980D01*
X37759Y-155657D02*
X41810Y-151606D01*
X36432Y-154331D02*
X37759Y-155657D01*
X33071Y-154331D02*
X36432D01*
X16535Y-26969D02*
X22539Y-20965D01*
X16535Y-69114D02*
Y-26969D01*
Y-69114D02*
X16634Y-69213D01*
X38189Y-147985D02*
X41810Y-151606D01*
X38189Y-147985D02*
Y-143799D01*
X17146Y-69213D02*
X20669Y-72736D01*
X37759Y-165515D02*
Y-155657D01*
Y-165515D02*
X44193Y-171949D01*
D56*
X31705Y-179606D02*
X31791Y-179693D01*
X31890Y-215945D02*
X36319Y-220374D01*
X45276D01*
X49043Y-216606D01*
X53768D01*
X67504Y-84153D02*
X72146D01*
X53866Y-216606D02*
X58760Y-211713D01*
D57*
X23012Y-19980D02*
D03*
X84941Y-19882D02*
D03*
D58*
X43012Y-19980D02*
D03*
X64941Y-19882D02*
D03*
D59*
X90453Y-211811D02*
D03*
Y-201811D02*
D03*
Y-191811D02*
D03*
Y-181811D02*
D03*
Y-171811D02*
D03*
Y-161811D02*
D03*
Y-151811D02*
D03*
X8744Y-211606D02*
D03*
Y-201606D02*
D03*
Y-191606D02*
D03*
Y-181606D02*
D03*
Y-171606D02*
D03*
Y-161606D02*
D03*
Y-151606D02*
D03*
D60*
X90453Y-141811D02*
D03*
X8744Y-141606D02*
D03*
D61*
X11516Y-93012D02*
D03*
X66142Y-185630D02*
D03*
X65650Y-175000D02*
D03*
X79429Y-119095D02*
D03*
X60433Y-75984D02*
D03*
X30610Y-66732D02*
D03*
X24606Y-63189D02*
D03*
X60335Y-68110D02*
D03*
X88705Y-64535D02*
D03*
X88740Y-104012D02*
D03*
X20579Y-216724D02*
D03*
X76953Y-211488D02*
D03*
X17717Y-102756D02*
D03*
X46555Y-168277D02*
D03*
X33465Y-165748D02*
D03*
X64941Y-146161D02*
D03*
X32185Y-51378D02*
D03*
X28543Y-97933D02*
D03*
X48917Y-183169D02*
D03*
X55020Y-101378D02*
D03*
X38189Y-143799D02*
D03*
X72146Y-84153D02*
D03*
X58760Y-211713D02*
D03*
X44291Y-63779D02*
D03*
X20669Y-72736D02*
D03*
X93898Y-91535D02*
D03*
X75000Y-137795D02*
D03*
X59106Y-140504D02*
D03*
X47244Y-147835D02*
D03*
X55216Y-94193D02*
D03*
X24803Y-152657D02*
D03*
X56705Y-164606D02*
D03*
X61417Y-143799D02*
D03*
D62*
X46358Y-181595D02*
D03*
X44193Y-171949D02*
D03*
M02*
