G04*
G04 #@! TF.GenerationSoftware,Altium Limited,Altium Designer,18.1.5 (160)*
G04*
G04 Layer_Physical_Order=2*
G04 Layer_Color=16711680*
%FSLAX25Y25*%
%MOIN*%
G70*
G01*
G75*
%ADD51C,0.01181*%
%ADD52C,0.01575*%
%ADD54C,0.01000*%
%ADD55C,0.02362*%
%ADD56C,0.01772*%
%ADD57R,0.08858X0.08858*%
%ADD58C,0.08858*%
%ADD59C,0.07874*%
%ADD60R,0.07874X0.07874*%
%ADD61C,0.01800*%
%ADD62C,0.02559*%
D51*
X13091Y-63189D02*
X24606D01*
X5020Y-71260D02*
X13091Y-63189D01*
X5020Y-86516D02*
Y-71260D01*
Y-86516D02*
X11516Y-93012D01*
X44026Y-165748D02*
X46555Y-168277D01*
X33465Y-165748D02*
X44026D01*
X66142Y-185630D02*
Y-175689D01*
X66240Y-175591D01*
X65650Y-175000D02*
X66240Y-175591D01*
X2165Y-124512D02*
X28543Y-98134D01*
Y-97933D01*
X27203Y-129096D02*
X54921Y-101378D01*
X27203Y-178108D02*
Y-129096D01*
X44291Y-63779D02*
X66142D01*
X13705Y-191606D02*
X27203Y-178108D01*
X66142Y-63779D02*
X93898Y-91535D01*
X72291Y-140504D02*
X75000Y-137795D01*
X59106Y-140504D02*
X72291D01*
X8744Y-161606D02*
X22441Y-147909D01*
Y-126969D01*
X55216Y-94193D01*
X2165Y-175028D02*
Y-124512D01*
Y-175028D02*
X8744Y-181606D01*
Y-171606D02*
X16583D01*
X24803Y-163386D01*
Y-152657D01*
X56705Y-164606D02*
X57972Y-163339D01*
Y-151083D02*
X61417Y-147638D01*
X57972Y-163339D02*
Y-151083D01*
X61417Y-147638D02*
Y-143799D01*
X8744Y-191606D02*
X13705D01*
D52*
X47244Y-165157D02*
X56595Y-174508D01*
X47244Y-165157D02*
Y-147835D01*
X50886Y-183169D02*
X56595Y-177461D01*
X48917Y-183169D02*
X50886D01*
X56595Y-177461D02*
Y-174508D01*
D54*
X54921Y-101378D02*
X55020D01*
X7776Y-140638D02*
X8744Y-141606D01*
D55*
X44193Y-179429D02*
X46358Y-181595D01*
X44193Y-179429D02*
Y-171949D01*
X58268Y-105709D02*
Y-94069D01*
X38189Y-125787D02*
X58268Y-105709D01*
X38189Y-143799D02*
Y-125787D01*
X53175Y-88976D02*
X58268Y-94069D01*
X20669Y-72736D02*
X36909Y-88976D01*
X53175D01*
D56*
X72146Y-84153D02*
X73819D01*
X85016Y-95350D01*
Y-141854D02*
Y-95350D01*
X74016Y-152854D02*
X85016Y-141854D01*
X74016Y-196457D02*
Y-152854D01*
X58760Y-211713D02*
X74016Y-196457D01*
D57*
X23012Y-19980D02*
D03*
X84941Y-19882D02*
D03*
D58*
X43012Y-19980D02*
D03*
X64941Y-19882D02*
D03*
D59*
X90453Y-211811D02*
D03*
Y-201811D02*
D03*
Y-191811D02*
D03*
Y-181811D02*
D03*
Y-171811D02*
D03*
Y-161811D02*
D03*
Y-151811D02*
D03*
X8744Y-211606D02*
D03*
Y-201606D02*
D03*
Y-191606D02*
D03*
Y-181606D02*
D03*
Y-171606D02*
D03*
Y-161606D02*
D03*
Y-151606D02*
D03*
D60*
X90453Y-141811D02*
D03*
X8744Y-141606D02*
D03*
D61*
X11516Y-93012D02*
D03*
X66142Y-185630D02*
D03*
X65650Y-175000D02*
D03*
X79429Y-119095D02*
D03*
X60433Y-75984D02*
D03*
X30610Y-66732D02*
D03*
X24606Y-63189D02*
D03*
X60335Y-68110D02*
D03*
X88705Y-64535D02*
D03*
X88740Y-104012D02*
D03*
X20579Y-216724D02*
D03*
X76953Y-211488D02*
D03*
X17717Y-102756D02*
D03*
X46555Y-168277D02*
D03*
X33465Y-165748D02*
D03*
X64941Y-146161D02*
D03*
X32185Y-51378D02*
D03*
X28543Y-97933D02*
D03*
X48917Y-183169D02*
D03*
X55020Y-101378D02*
D03*
X38189Y-143799D02*
D03*
X72146Y-84153D02*
D03*
X58760Y-211713D02*
D03*
X44291Y-63779D02*
D03*
X20669Y-72736D02*
D03*
X93898Y-91535D02*
D03*
X75000Y-137795D02*
D03*
X59106Y-140504D02*
D03*
X47244Y-147835D02*
D03*
X55216Y-94193D02*
D03*
X24803Y-152657D02*
D03*
X56705Y-164606D02*
D03*
X61417Y-143799D02*
D03*
D62*
X46358Y-181595D02*
D03*
X44193Y-171949D02*
D03*
M02*
