G04*
G04 #@! TF.GenerationSoftware,Altium Limited,Altium Designer,18.1.5 (160)*
G04*
G04 Layer_Color=10275833*
%FSLAX25Y25*%
%MOIN*%
G70*
G01*
G75*
%ADD45R,0.09252X0.09252*%
%ADD46C,0.09252*%
%ADD47C,0.08674*%
%ADD48R,0.08674X0.08674*%
%ADD49C,0.01400*%
%ADD50C,0.02159*%
D45*
X23012Y-19980D02*
D03*
X84941Y-19882D02*
D03*
D46*
X43012Y-19980D02*
D03*
X64941Y-19882D02*
D03*
D47*
X90453Y-211811D02*
D03*
Y-201811D02*
D03*
Y-191811D02*
D03*
Y-181811D02*
D03*
Y-171811D02*
D03*
Y-161811D02*
D03*
Y-151811D02*
D03*
X8744Y-211606D02*
D03*
Y-201606D02*
D03*
Y-191606D02*
D03*
Y-181606D02*
D03*
Y-171606D02*
D03*
Y-161606D02*
D03*
Y-151606D02*
D03*
D48*
X90453Y-141811D02*
D03*
X8744Y-141606D02*
D03*
D49*
X11516Y-93012D02*
D03*
X66142Y-185630D02*
D03*
X65650Y-175000D02*
D03*
X79429Y-119095D02*
D03*
X60433Y-75984D02*
D03*
X30610Y-66732D02*
D03*
X24606Y-63189D02*
D03*
X60335Y-68110D02*
D03*
X88705Y-64535D02*
D03*
X88740Y-104012D02*
D03*
X20579Y-216724D02*
D03*
X76953Y-211488D02*
D03*
X17717Y-102756D02*
D03*
X46555Y-168277D02*
D03*
X33465Y-165748D02*
D03*
X64941Y-146161D02*
D03*
X32185Y-51378D02*
D03*
X28543Y-97933D02*
D03*
X48917Y-183169D02*
D03*
X55020Y-101378D02*
D03*
X38189Y-143799D02*
D03*
X72146Y-84153D02*
D03*
X58760Y-211713D02*
D03*
X44291Y-63779D02*
D03*
X20669Y-72736D02*
D03*
X93898Y-91535D02*
D03*
X75000Y-137795D02*
D03*
X59106Y-140504D02*
D03*
X47244Y-147835D02*
D03*
X55216Y-94193D02*
D03*
X24803Y-152657D02*
D03*
X56705Y-164606D02*
D03*
X61417Y-143799D02*
D03*
D50*
X46358Y-181595D02*
D03*
X44193Y-171949D02*
D03*
M02*
